Coordinates
version=1
nRows=49
nColumns=12
inDegrees=yes

Units are S.I. units (second, meters, Newtons, ...)
Angles are in degrees

endheader
time	SC_y	SC_z	SC_x	AC_y	AC_z	AC_x	GH_y	GH_z	GH_yy	EL_x	PS_y
       0.0              -29.36          19.17          38.11          33.35         -6.662         -4.034         -178.0          48.08          153.2          103.2          80.91
   0.03611              -29.37          19.17          38.12          33.35         -6.662         -4.034         -178.0          48.07          153.1          103.2          80.91
   0.07222              -29.37          19.17          38.12          33.36         -6.662         -4.034         -177.9          48.06          153.1          103.3          80.91
    0.1083              -29.38          19.17          38.13          33.36         -6.662         -4.034         -177.9          48.05          153.0          103.3           80.9
    0.1444              -29.38          19.17          38.13          33.37         -6.662         -4.034         -177.9          48.04          153.0          103.3           80.9
    0.1806              -29.39          19.17          38.14          33.37         -6.662         -4.035         -177.9          48.03          152.9          103.3           80.9
    0.2167              -29.39          19.16          38.14          33.38         -6.662         -4.035         -177.8          48.02          152.9          103.3          80.89
    0.2528               -29.4          19.16          38.15          33.39         -6.662         -4.035         -177.8          48.01          152.8          103.3          80.89
    0.2889               -29.4          19.16          38.16          33.39         -6.662         -4.035         -177.8          47.99          152.8          103.3          80.89
     0.325              -29.41          19.16          38.16           33.4         -6.662         -4.036         -177.8          47.98          152.7          103.3          80.88
    0.3611              -29.42          19.16          38.17          33.41         -6.662         -4.036         -177.7          47.96          152.6          103.3          80.88
    0.3972              -29.42          19.16          38.18          33.42         -6.662         -4.036         -177.7          47.95          152.6          103.3          80.87
    0.4333              -29.43          19.15          38.19          33.43         -6.662         -4.037         -177.6          47.93          152.5          103.3          80.87
    0.4694              -29.44          19.15           38.2          33.44         -6.662         -4.037         -177.6          47.91          152.4          103.3          80.86
    0.5055              -29.45          19.15          38.21          33.45         -6.662         -4.038         -177.6          47.89          152.3          103.3          80.85
    0.5417              -29.46          19.15          38.22          33.46         -6.662         -4.038         -177.5          47.87          152.2          103.3          80.85
    0.5778              -29.47          19.14          38.23          33.47         -6.662         -4.039         -177.4          47.84          152.1          103.4          80.84
    0.6139              -29.48          19.14          38.25          33.49         -6.662         -4.039         -177.4          47.82          151.9          103.4          80.83
      0.65              -29.49          19.14          38.26           33.5         -6.662          -4.04         -177.3          47.79          151.8          103.4          80.82
    0.6861              -29.51          19.13          38.28          33.52         -6.662          -4.04         -177.2          47.76          151.6          103.4          80.81
    0.7222              -29.52          19.13           38.3          33.54         -6.661         -4.041         -177.2          47.72          151.5          103.4           80.8
    0.7583              -29.54          19.13          38.32          33.56         -6.661         -4.042         -177.1          47.68          151.3          103.4          80.79
    0.7944              -29.56          19.12          38.34          33.58         -6.661         -4.043         -177.0          47.64          151.1          103.5          80.78
    0.8305              -29.58          19.12          38.36           33.6         -6.661         -4.044         -176.9          47.59          150.9          103.5          80.76
    0.8666              -29.61          19.11          38.39          33.63         -6.661         -4.045         -176.8          47.54          150.6          103.5          80.74
    0.9028              -29.63           19.1          38.42          33.66         -6.661         -4.046         -176.6          47.48          150.3          103.5          80.73
    0.9389              -29.66          19.09          38.45           33.7         -6.661         -4.047         -176.5          47.42          150.0          103.6           80.7
     0.975              -29.69          19.09          38.49          33.73         -6.661         -4.049         -176.3          47.34          149.7          103.6          80.68
     1.011              -29.73          19.08          38.54          33.78         -6.661         -4.051         -176.1          47.26          149.3          103.6          80.66
     1.047              -29.77          19.07          38.58          33.83          -6.66         -4.053         -175.9          47.17          148.8          103.7          80.63
     1.083              -29.82          19.05          38.64          33.88          -6.66         -4.055         -175.7          47.06          148.3          103.7          80.59
     1.119              -29.88          19.04           38.7          33.95          -6.66         -4.057         -175.4          46.94          147.8          103.8          80.55
     1.156              -29.94          19.02          38.78          34.02          -6.66          -4.06         -175.1          46.79          147.1          103.9          80.51
     1.192              -30.02           19.0          38.86          34.11         -6.659         -4.064         -174.7          46.63          146.3          104.0          80.46
     1.228               -30.1          18.98          38.96          34.21         -6.659         -4.068         -174.2          46.44          145.4          104.1           80.4
     1.264              -30.21          18.95          39.08          34.33         -6.658         -4.073         -173.7          46.21          144.3          104.2          80.32
       1.3              -30.33          18.92          39.22          34.47         -6.658         -4.078         -173.1          45.94          143.0          104.3          80.24
     1.336              -30.48          18.89          39.39          34.64         -6.657         -4.085         -172.4          45.61          141.5          104.5          80.14
     1.372              -30.65          18.84           39.6          34.85         -6.656         -4.093         -171.5          45.22          139.6          104.7          80.01
     1.408              -30.87          18.78          39.84           35.1         -6.655         -4.103         -170.4          44.74          137.3          104.9          79.86
     1.444              -31.14          18.72          40.15          35.41         -6.654         -4.116         -169.0          44.15          134.5          105.2          79.67
     1.481              -31.47          18.63          40.54           35.8         -6.653         -4.131         -167.4          43.41          131.0          105.6          79.44
     1.517              -31.89          18.52          41.02          36.29         -6.651         -4.151         -165.3          42.48          126.6          106.0          79.15
     1.553              -32.42          18.39          41.63          36.91         -6.648         -4.175         -162.6          41.29          120.9          106.6          78.77
     1.589              -33.11          18.21          42.42          37.71         -6.645         -4.207         -159.1          39.78          113.8          107.4          78.29
     1.625              -33.99          17.98          43.43          38.73         -6.641         -4.248         -154.7          37.83          104.5          108.3          77.68
     1.661              -35.11           17.7          44.71          40.04         -6.636         -4.299         -149.1          35.35          92.73          109.5           76.9
     1.697              -36.51          17.34          46.33          41.68          -6.63         -4.365         -142.0          32.23           77.9          111.1          75.91
     1.733              -38.23          16.89          48.31          43.67         -6.622         -4.444         -133.3          28.43          59.83          113.0          74.71
